<?xml version="1.0" standalone="no"?>
<!DOCTYPE svg PUBLIC "-//W3C//DTD SVG 20010904//EN"
 "http://www.w3.org/TR/2001/REC-SVG-20010904/DTD/svg10.dtd">
<svg version="1.0" xmlns="http://www.w3.org/2000/svg"
 width="260.000000pt" height="260.000000pt" viewBox="0 0 260.000000 260.000000"
 preserveAspectRatio="xMidYMid meet">
<metadata>
Created by potrace 1.11, written by Peter Selinger 2001-2013
</metadata>
<g transform="translate(0.000000,260.000000) scale(0.100000,-0.100000)"
fill="#000000" stroke="none">
<path d="M107 2493 c-4 -3 -7 -80 -7 -170 l0 -163 200 0 200 0 0 -400 0 -400
170 0 170 0 0 400 0 400 200 0 200 0 -2 168 -3 167 -561 3 c-308 1 -564 -1
-567 -5z"/>
<path d="M1367 2493 c-4 -3 -7 -80 -7 -170 l0 -163 200 0 200 0 0 -230 0 -230
-197 -2 -198 -3 -3 -167 -2 -168 570 0 570 0 -2 168 -3 167 -197 3 -198 2 0
230 0 230 200 0 200 0 -2 168 -3 167 -561 3 c-308 1 -564 -1 -567 -5z"/>
<path d="M107 1233 c-4 -3 -7 -260 -7 -570 l0 -563 170 0 170 0 0 105 0 105
230 0 230 0 0 -105 0 -105 170 0 170 0 -2 568 -3 567 -561 3 c-308 1 -564 -1
-567 -5z m793 -458 l0 -125 -230 0 -230 0 0 125 0 125 230 0 230 0 0 -125z"/>
<path d="M1367 1233 c-4 -3 -7 -260 -7 -570 l0 -563 570 0 570 0 -2 167 -3
168 -397 3 -398 2 0 230 0 230 400 0 400 0 -2 168 -3 167 -561 3 c-308 1 -564
-1 -567 -5z"/>
</g>
</svg>
